<svg xmlns="http://www.w3.org/2000/svg" viewBox="0 0 150 150">
  <g>
    <g>
      <path fill="#042b32" d="M0 0h150v150H0z"/>
      <path fill="#fff" d="M91.32 36.93c-.88 0-1.75 0-2.62.08h-.62c-.73.06-1.45.12-2.16.21h-.37a44 44 0 00-5.16 1l-.83.24a37.52 37.52 0 00-10.43 4.73l-.7.47c-.37.26-.73.51-1.09.78l-.73.58c-.46.36-.91.74-1.36 1.12s-.74.66-1.1 1l-.66.67c-.33.33-.65.66-1 1l-.57.64c-.38.44-.75.89-1.11 1.34l-.31.39c-.46.6-.9 1.21-1.31 1.84l-.32.49c-.32.49-.62 1-.91 1.49-.12.2-.24.41-.35.62-.31.54-.59 1.1-.87 1.66-.05.11-.11.21-.16.31v.09l-.06.12c-.14.29-.27.6-.4.9a37.47 37.47 0 00-1.8 5.06v.15c-.16.6-.31 1.21-.45 1.82 0 .16-.07.32-.1.48-.11.51-.2 1-.29 1.54 0 .21-.07.42-.1.63-.08.48-.14 1-.2 1.46 0 .23-.05.45-.08.68 0 .5-.08 1-.12 1.52v.63q-.06 1.07-.06 2.16t.06 2.19v.64c0 .51.07 1 .12 1.53 0 .24.05.46.08.69.06.5.12 1 .2 1.49 0 .21.06.42.1.62.09.54.19 1.06.3 1.59l.09.46c.14.63.29 1.26.46 1.88v.11A37.88 37.88 0 0055.62 90a14.56 14.56 0 003.06.34 13.09 13.09 0 0012.8-9.16 15.19 15.19 0 00.45-1.56c0-.12-.06-.25-.08-.38s0-.22 0-.34c-.09-.57-.17-1.15-.22-1.75s-.09-1.46-.09-2.2 0-1.46.09-2.17.13-1.2.23-1.79v-.27c0-.16.07-.32.1-.47.12-.64.27-1.27.44-1.88s.29-1 .47-1.54c.17-.48.36-1 .56-1.42l.12-.23c.18-.4.36-.8.56-1.18v-.06a19 19 0 0115.62-10.17q.78-.06 1.59-.06h1.13c.37 0 .67 0 1 .08a20.55 20.55 0 012.22.37l.67.14c.35.09.69.2 1 .31.54.16 1.06.35 1.58.56a18.53 18.53 0 014.59 2.66l.2.16c.35.29.69.59 1 .91l.28.28c.31.3.61.62.9.94.09.12.19.24.29.35.27.33.54.66.79 1 .08.1.15.22.22.32a20.35 20.35 0 011.23 2c.11.21.23.41.33.62s.26.57.38.85.26.59.38.9.2.55.29.83.23.67.32 1 .16.55.22.83.18.75.25 1.13.11.53.15.79c.07.44.12.88.17 1.33 0 .23.06.45.08.68 0 .68.08 1.37.08 2.08s0 1.43-.08 2.12c0 .24-.06.46-.08.69 0 .46-.1.92-.17 1.36 0 .28-.1.54-.15.81s-.16.78-.26 1.16-.14.56-.22.83-.21.7-.32 1-.19.56-.3.84-.25.61-.39.92-.24.57-.37.84-.25.47-.38.7a18.91 18.91 0 01-1.18 1.94l-.24.35c-.25.34-.52.67-.79 1l-.31.38c-.28.32-.58.63-.88.93l-.3.3c-.33.31-.66.6-1 .89a2.11 2.11 0 00-.23.19 18.56 18.56 0 01-4.65 2.65 41 41 0 01-15.5 17.51c.73.14 1.46.27 2.21.36h.35c.72.09 1.45.15 2.19.21h.61c.87.05 1.74.08 2.63.08 23.18 0 38.49-16.57 38.49-38.17.06-21.11-15.25-37.79-38.43-37.79z"/>
      <path fill="#fff" d="M97.11 72.74v-.63c0-.51-.07-1-.12-1.52 0-.23 0-.45-.08-.68-.06-.49-.12-1-.2-1.46 0-.21-.06-.42-.1-.63-.09-.52-.18-1-.29-1.54 0-.16-.07-.32-.1-.48-.14-.61-.29-1.22-.45-1.82v-.15a39.68 39.68 0 00-1.26-3.77 15.05 15.05 0 00-3.11-.35 13.12 13.12 0 00-12.81 9.07q-.26.73-.45 1.5c0 .13.07.26.09.39v.27c.09.59.18 1.18.23 1.79s.09 1.43.09 2.17 0 1.48-.09 2.2-.13 1.18-.22 1.75v.34l-.09.4a23.27 23.27 0 01-.91 3.52 19 19 0 01-18.56 13.18 20.48 20.48 0 01-4.83-.58 18.37 18.37 0 01-2.69-.87 19 19 0 01-4.64-2.66 2.11 2.11 0 00-.23-.19c-.35-.29-.68-.58-1-.89l-.3-.3c-.3-.3-.6-.61-.88-.93l-.31-.38c-.27-.32-.54-.65-.79-1l-.24-.35a18.91 18.91 0 01-1.18-1.94c-.13-.23-.26-.46-.38-.7s-.25-.56-.37-.84-.27-.61-.39-.92-.2-.56-.3-.84-.22-.69-.32-1-.16-.55-.22-.83-.18-.77-.26-1.16l-.15-.81c-.07-.44-.12-.9-.17-1.36 0-.23-.06-.45-.08-.69 0-.69-.08-1.4-.08-2.12s0-1.4.08-2.08c0-.23.05-.45.08-.68 0-.45.1-.89.17-1.33 0-.26.09-.52.15-.79s.15-.76.25-1.13.14-.55.22-.83.2-.68.32-1 .19-.56.29-.83.25-.6.38-.9.24-.57.38-.85.22-.41.33-.62a22.45 22.45 0 011.23-2 3.62 3.62 0 01.22-.32c.25-.35.52-.68.79-1l.3-.35c.28-.32.58-.64.89-.94l.28-.28c.33-.32.67-.62 1-.91l.21-.16a18.24 18.24 0 014.7-2.71v-.07A41.07 41.07 0 0166.7 37.66q-1.11-.21-2.25-.36h-.37c-.71-.09-1.43-.15-2.16-.21h-.62c-.87 0-1.74-.08-2.62-.08-23.18 0-38.49 16.68-38.49 38 0 21.6 15.31 38.17 38.49 38.17.89 0 1.76 0 2.63-.08h.61c.74-.06 1.47-.12 2.19-.21h.35c.79-.1 1.56-.23 2.33-.37h.28l.42-.1c.7-.14 1.39-.29 2.07-.46h.09a35.54 35.54 0 0023.82-19.82c.34-.71.64-1.44.93-2.17.49-1.26.92-2.54 1.29-3.87v-.11c.17-.62.32-1.25.46-1.88l.09-.46c.11-.53.21-1.05.3-1.59 0-.2.07-.41.1-.62.08-.49.14-1 .2-1.49 0-.23 0-.45.08-.69 0-.5.08-1 .12-1.53v-.64q.06-1.09.06-2.19t.01-2.16z"/>
    </g>
  </g>
</svg>
