<svg width="457" height="418" viewBox="0 0 457 418" xmlns="http://www.w3.org/2000/svg">
    <title>Survey</title>
    <desc>Ilustration of a survey sheet.</desc>
    <defs><linearGradient x1="50%" y1="100%" x2="50%" y2="0%" id="a"><stop stop-color="gray" stop-opacity=".25" offset="0%"/><stop stop-color="gray" stop-opacity=".12" offset="54%"/><stop stop-color="gray" stop-opacity=".1" offset="100%"/></linearGradient><linearGradient x1="50%" y1="99.981618%" x2="50%" y2="0%" id="b"><stop stop-color="gray" stop-opacity=".25" offset="0%"/><stop stop-color="gray" stop-opacity=".12" offset="54%"/><stop stop-color="gray" stop-opacity=".1" offset="100%"/></linearGradient><linearGradient x1="50%" y1="100%" x2="50%" y2="-.024845%" id="c"><stop stop-color="gray" stop-opacity=".25" offset="0%"/><stop stop-color="gray" stop-opacity=".12" offset="54%"/><stop stop-color="gray" stop-opacity=".1" offset="100%"/></linearGradient></defs><g transform="translate(1)" fill="none" fill-rule="evenodd"><path stroke="#163A40" fill="#FFF" fill-rule="nonzero" d="M128 31h202v280H128z"/><path fill="url(#a)" fill-rule="nonzero" d="M180 24h100v25H180z"/><path d="M230 0c-7.732681 0-14 6.493015-14 14.5S222.267319 29 230 29s14-6.493015 14-14.5S237.732681 0 230 0zm0 22.864154c-3.363309.088915-6.444663-1.891606-7.793123-5.008981-1.34846-3.117376-.695229-6.750199 1.652101-9.187858 2.347331-2.437659 5.920852-3.194239 9.037876-1.913484 3.117024 1.280755 5.156214 4.343543 5.157363 7.746169.052778 4.556254-3.549254 8.296897-8.054217 8.364154z" fill="url(#b)" fill-rule="nonzero"/><path d="M229.5 1c3.580423 0 7.0142 1.422317 9.545942 3.954058C241.577683 7.4858 243 10.919578 243 14.5c0 3.70519-1.492668 7.06175-3.909473 9.501148L279 24v23h-98V24l38.909473.001148C217.492668 21.56175 216 18.205191 216 14.5 216 7.044156 222.044156 1 229.5 1zm0 5.711538c-4.301449 0-7.788462 3.487014-7.788462 7.788462 0 4.301448 3.487013 7.788462 7.788462 7.788462s7.788462-3.487013 7.788462-7.788462c0-4.301448-3.487013-7.788462-7.788462-7.788462z" stroke="#163A40" fill="#FFA318" fill-rule="nonzero"/><path stroke="#163A40" fill="#35D78C" fill-rule="nonzero" d="M139 78h40v40h-40z"/><path stroke="#163A40" fill="#FFA318" fill-rule="nonzero" d="M139 163h40v40h-40zM139 248h40v40h-40z"/><path fill="#E0E0E0" fill-rule="nonzero" d="M206 90h54v4h-54zM206 96h90v4h-90zM206 102h84v4h-84zM206 175h54v4h-54zM206 181h90v4h-90zM206 187h84v4h-84zM206 260h54v4h-54zM206 266h90v4h-90zM206 271h84v4h-84z"/><path fill="url(#c)" fill-rule="nonzero" d="M150.125 95.394783L157.625 102l10.625-15 3.75 3-14.375 18L147 96.6z"/><path fill="#FFF" fill-rule="nonzero" d="M151.625 96.2l6.3 5.657143L166.85 89l3.15 2.571429L157.925 107 149 97.228571zM151.625 181.2l6.3 5.657143L166.85 174l3.15 2.571429L157.925 192 149 182.228571zM151.625 266.2l6.3 5.657143L166.85 259l3.15 2.571429L157.925 277 149 267.228571z"/><g stroke="#163A40" stroke-dasharray="11" stroke-width="5"><path d="M424.5 171.5v-63M339.5 174.5h88"/></g><path d="M119 96H49v67M160 322v38h105" stroke="#163A40" stroke-width="5" stroke-dasharray="12"/><path stroke="#163A40" fill="#FFF" fill-rule="nonzero" d="M455 100h-77V56.871972L416.238095 24 455 56.871972z"/><path fill="#E0E0E0" fill-rule="nonzero" d="M379 57l37.741497 22L455 57"/><path stroke="#979797" fill="#FAFAFA" fill-rule="nonzero" d="M416.764706 79.333333L394 94V39h45v27.971429z"/><path fill="#F5F5F5" fill-rule="nonzero" d="M379 99h76l-76-42z"/><path fill="#E0E0E0" fill-rule="nonzero" d="M400 46h32v2h-32zM400 50h32v2h-32z"/><path fill="#F9A826" fill-rule="nonzero" d="M400 54h32v2h-32z"/><path fill="#E0E0E0" fill-rule="nonzero" d="M400 59h32v2h-32z"/><path fill="#F9A826" fill-rule="nonzero" d="M400 63h32v2h-32z"/><path stroke="#163A40" d="M273 329h88v88h-88z"/><path fill="#FFF" fill-rule="nonzero" d="M278 331h77v68h-77z"/><path d="M355 377.176471c-21.280479 0-38.5-5.447647-38.5-12.176471-21.280479 0-38.5 4.738235-38.5 10.588235V401h77v-23.823529z" fill="#E0E0E0" fill-rule="nonzero"/><circle fill="#FFA318" fill-rule="nonzero" cx="342" cy="346" r="8"/><path stroke="#163A40" fill="#FFF" fill-rule="nonzero" d="M0 170h101v72H0z"/><path d="M53.5 189a19.652713 19.652713 0 00-2.52973.168649L53.5 208.5l-19.452568-1.296486C34.021082 207.630405 34 208.062568 34 208.5c0 10.769553 8.730447 19.5 19.5 19.5S73 219.269553 73 208.5 64.269553 189 53.5 189z" fill="#E0E0E0" fill-rule="nonzero"/><path d="M46.529125 186C37.524358 187.187466 30.605365 194.607353 30 203.725736L49 205l-2.470875-19z" fill="#FFA318" fill-rule="nonzero"/><path fill="#FFF" d="M454 57l-39 22 39 20z"/></g></svg>