<svg width="88" height="88" viewBox="0 0 88 88" xmlns="http://www.w3.org/2000/svg"><g transform="translate(-2 -2)" fill="none" fill-rule="evenodd"><path d="M6.272848 64.783183L64.7913 6.26473c3.204838-3.204838 8.400906-3.204838 11.605744 0l9.331064 9.331064c3.204837 3.204838 3.204837 8.400906 0 11.605744L27.209656 85.71999c-3.204838 3.204838-8.400906 3.204838-11.605744 0l-9.331064-9.331064c-3.204837-3.204837-3.204837-8.400906 0-11.605743z" fill="#35D78C" fill-rule="nonzero"/><path d="M33.106067 42.225736l14.538199-14.538198c.585786-.585787 1.535534-.585787 2.12132 0l14.538199 14.538198c.585786.585787.585786 1.535534 0 2.12132l-14.538199 14.5382c-.585786.585786-1.535534.585786-2.12132 0l-14.538199-14.5382c-.585786-.585786-.585786-1.535533 0-2.12132z" fill="#FFF" fill-rule="nonzero" opacity=".25"/><path d="M6.272848 64.783183L64.7913 6.26473c3.204838-3.204838 8.400906-3.204838 11.605744 0l9.331064 9.331064c3.204837 3.204838 3.204837 8.400906 0 11.605744L27.209656 85.71999c-3.204838 3.204838-8.400906 3.204838-11.605744 0l-9.331064-9.331064c-3.204837-3.204837-3.204837-8.400906 0-11.605743z" stroke="#163A40" stroke-width="2" stroke-linecap="round" stroke-linejoin="round"/><path d="M46 66.961848l14.142983 14.142983c5.798155 5.764987 15.163693 5.764987 20.961848 0 5.764987-5.798155 5.764987-15.163693 0-20.961848L66.961848 46 46 66.961848z" fill="#35D78C" fill-rule="nonzero"/><path d="M46 66.961848l14.142983 14.142983c5.798155 5.764987 15.163693 5.764987 20.961848 0 5.764987-5.798155 5.764987-15.163693 0-20.961848L66.961848 46 46 66.961848z" fill="#163A40" fill-rule="nonzero" opacity=".2"/><path d="M25.038152 46L10.895169 31.857886c-5.764987-5.798354-5.764987-15.164214 0-20.962568 5.798155-5.765186 15.163693-5.765186 20.961848 0L46 25.038786 25.038152 46z" fill="#35D78C" fill-rule="nonzero"/><path fill="#163A40" fill-rule="nonzero" opacity=".2" d="M20.653061 41.324675l20.671614-20.671614L46 25.328386 25.328386 46z"/><path d="M66.961848 45.999323l14.142983 14.143225c5.764987 5.798255 5.764987 15.163954 0 20.962208-5.798155 5.765087-15.163693 5.765087-20.961848 0L46 66.961531M25.038152 45.999323L10.895169 31.857452c-5.764987-5.798255-5.764987-15.163954 0-20.962208 5.798155-5.765087 15.163693-5.765087 20.961848 0L46 25.038469" stroke="#163A40" stroke-width="2" stroke-linecap="round" stroke-linejoin="round"/><path d="M40.740147 61.959184l-10.69933-10.680056M51.19952 30.040816l10.759663 10.740272" stroke="#163A40" stroke-width="1.5" stroke-linecap="round" stroke-linejoin="round"/><circle fill="#163A40" fill-rule="nonzero" opacity=".16" transform="rotate(-45 46.355824 36.069412)" cx="46.355823" cy="36.069412" r="1.352941"/><circle fill="#163A40" fill-rule="nonzero" opacity=".16" transform="rotate(-45 55.92478 45.635663)" cx="55.92478" cy="45.635663" r="1.352941"/><circle fill="#163A40" fill-rule="nonzero" opacity=".16" transform="rotate(-45 36.788616 45.637412)" cx="36.788616" cy="45.637412" r="1.352941"/><circle fill="#163A40" fill-rule="nonzero" opacity=".16" transform="rotate(-45 46.357176 45.636619)" cx="46.357177" cy="45.636619" r="1.352941"/><circle fill="#163A40" fill-rule="nonzero" opacity=".16" transform="rotate(-45 46.35622 55.203663)" cx="46.35622" cy="55.203663" r="1.352941"/><circle stroke="#163A40" stroke-width="1.5" stroke-linecap="round" stroke-linejoin="round" transform="rotate(-45 46.355824 36.069412)" cx="46.355823" cy="36.069412" r="1.352941"/><circle stroke="#163A40" stroke-width="1.5" stroke-linecap="round" stroke-linejoin="round" transform="rotate(-45 55.92478 45.635663)" cx="55.92478" cy="45.635663" r="1.352941"/><circle stroke="#163A40" stroke-width="1.5" stroke-linecap="round" stroke-linejoin="round" transform="rotate(-45 36.788616 45.637412)" cx="36.788616" cy="45.637412" r="1.352941"/><circle stroke="#163A40" stroke-width="1.5" stroke-linecap="round" stroke-linejoin="round" transform="rotate(-45 46.357176 45.636619)" cx="46.357177" cy="45.636619" r="1.352941"/><circle stroke="#163A40" stroke-width="1.5" stroke-linecap="round" stroke-linejoin="round" transform="rotate(-45 46.35622 55.203663)" cx="46.35622" cy="55.203663" r="1.352941"/></g></svg>