<svg width="89" height="93" viewBox="0 0 89 93" xmlns="http://www.w3.org/2000/svg"><g fill="none" fill-rule="evenodd"><path d="M44.085106 4.331128c-.099239-.00055-.194073-.03983-.263127-.108982-.967876-.947996-4.79014-3.70241-15.12441-1.195819C16.309061 6.03155 1 20.266416 1 52.292255c0 32.025838 25.389438 38.815579 33.852584 38.815579 6.204255 0 8.275418-1.607861 8.937082-2.463297.068274-.092663.178044-.148132.29544-.14929" fill="#35D78C" fill-rule="nonzero"/><path d="M11.771277 44.703189c0-19.930047 5.898043-32.98472 13.33484-40.744775C13.540843 8.673724 1 23.123532 1 52.187809c0 32.112014 25.389438 38.920025 33.852584 38.920025 6.204255 0 8.275418-1.612187 8.937082-2.469925.068274-.092912.178044-.14853.29544-.149692v-4.93985c-9.623366-.748462-32.31383-8.487559-32.31383-38.845178z" fill="#163A40" fill-rule="nonzero" opacity=".16"/><path d="M59.472644 3.026366c-10.33427-2.50659-14.156535.247823-15.12441 1.194325-.068796.069703-.163663.109533-.263128.110475V88.50122c.117396.001159.227167.056628.295441.149291.661664.849464 2.732827 2.457324 8.937082 2.457324 8.463146 0 33.852584-6.789738 33.852584-38.815562 0-32.025825-15.309062-46.260686-27.697569-49.265906z" fill="#35D78C" fill-rule="nonzero"/><path d="M45.32192 4.220691c-.067352.069703-.160229.109533-.257607.110475V88.50122c.114933.001159.222402.056628.289243.149291.647783.849464 2.675495 2.457324 8.74959 2.457324 11.78068-.617525 22.417247-7.183249 28.171032-17.389372-23.049026 16.9415-26.664559-16.947472-26.664559-34.862346 0-15.26198 1.098218-33.760582 8.873122-34.29355-1.400003-.644803-2.857523-1.159087-4.353705-1.5362C50.011568.519776 46.26949 3.27419 45.32192 4.220691z" fill="#163A40" fill-rule="nonzero" opacity=".16"/><path d="M26.228418 3.958414c3.341717.510248 5.878359 3.200936 6.11543 6.48681M12.19962 14.9117c10.758572 2.541425 7.930185 11.983553 7.930185 11.983553m-4.60339 5.882347s.285896-7.444125 9.173145-5.9553M1.979207 47.378506c5.82189-8.137918 18.13378-6.465967 21.191496 3.955808m-7.644288 5.264485c3.057715-5.9553 10.702003-7.444125 15.288576-1.488825M24.699561 38.7329c4.988662 0 10.702003 2.97765 10.702003 10.421775m9.173146-11.9106c-4.586573-1.488825-10.468088-.461535-12.524402 4.019828m.29354-23.374553c4.586574 1.488825 6.115431 8.93295 3.057716 13.399425m9.173146-5.9553c-2.398234-1.054234-5.131875-1.121336-7.581605-.186103M7.59623 74.4647c6.16894-.334986 11.24322-5.57416 11.24322-10.018303m-7.899608-.403472c7.644288-1.488825 11.399162 1.122574 12.23086 5.9553M38.732946 68.2295c-10.702004-1.488825-18.0818 12.56866-8.237485 21.899127m1.848389-30.552178c6.11543 1.488825 9.173146 10.421775 3.057715 16.377075m-8.67321-61.914276c.83072-1.87231 2.587594-3.200392 4.656199-3.51978s4.161169.414348 5.545869 1.944603m25.99058-8.505657c-3.341718.510248-5.87836 3.200936-6.115431 6.48681M76.949799 14.9117c-10.75857 2.541425-7.930184 11.983553-7.930184 11.983553m4.60339 5.882347s-.285896-7.444125-9.173146-5.9553m22.720354 20.556207c-5.82189-8.137918-18.13378-6.465967-21.191496 3.955808m7.644288 5.264485c-3.057715-5.9553-10.702003-7.444125-15.288576-1.488825m6.11543-16.377075c-4.988662 0-10.702003 2.97765-10.702003 10.421775m-9.173146-11.9106c4.586573-1.488825 10.468088-.461535 12.524402 4.019828m-.293541-23.374553c-4.586573 1.488825-6.11543 8.93295-3.057715 13.399425m-9.173146-5.9553c2.398234-1.054234 5.131874-1.121336 7.581605-.186103M81.554719 74.4647c-6.168941-.334986-11.24322-5.57416-11.24322-10.018303m7.89808-.403472c-7.64429-1.488825-11.399164 1.122574-12.230862 5.9553M50.416475 68.2295c10.702003-1.488825 18.0818 12.56866 8.237485 21.899127M56.80557 59.576449c-6.11543 1.488825-9.173146 10.421775-3.057715 16.377075m8.67321-61.914276c-.83072-1.87231-2.587594-3.200392-4.6562-3.51978-2.068605-.319388-4.161168.414348-5.545868 1.944603" stroke="#163A40" stroke-linecap="round" stroke-linejoin="round"/><path d="M44.085106 4.331166c-.099239-.00055-.194073-.039829-.263127-.108982-.967876-.947995-4.79014-3.702407-15.12441-1.195818C16.309061 6.031586 1 20.266447 1 52.292272c0 32.025824 25.389438 38.815562 33.852584 38.815562 6.204255 0 8.275418-1.60786 8.937082-2.463296.068274-.092663.178044-.148132.29544-.14929M59.472644 3.026366c-10.33427-2.50659-14.156535.247823-15.12441 1.194325-.068796.069703-.163663.109533-.263128.110475V88.50122c.117396.001159.227167.056628.295441.149291.661664.849464 2.732827 2.457324 8.937082 2.457324 8.463146 0 33.852584-6.789738 33.852584-38.815562 0-32.025825-15.309062-46.260686-27.697569-49.265906z" stroke="#163A40" stroke-width="2" stroke-linecap="round" stroke-linejoin="round"/></g></svg>