<svg width="80" height="86" viewBox="0 0 80 86" xmlns="http://www.w3.org/2000/svg"><g fill="none" fill-rule="evenodd"><path d="M7.734638 68.530484c2.522502 2.992576 4.04951 6.693644 4.369463 10.590435.116078 2.843274-1.89967 5.331497-4.710914 5.815116-1.600957.244765-3.229244-.220017-4.458052-1.272517C1.706327 82.611018.999526 81.075746 1 79.460134c0-3.876745 2.900947-8.570374 4.509653-10.872884.25289-.357122.660032-.574105 1.098213-.585284.438181-.01118.85591.184758 1.126772.528518zm6.10448-8.308694l-.508014.502592c-.951183.948011-1.38491 2.29584-1.164572 3.618966.220337 1.323125 1.06762 2.458692 2.274983 3.049034 1.683277.781687 3.67845.41068 4.966309-.923495l.378927-.37383c3.690052-3.784275 8.380166-6.447301 13.526183-7.680107 1.807415-.391286 3.465327-1.289023 4.778927-2.587726L45 49H21.004038c-1.465395 4.252994-3.920866 8.098783-7.16492 11.22179z" fill="#35D78C" fill-rule="nonzero"/><path d="M24.227987 41.980894c-1.31287 1.317611-2.22395 2.991661-2.62413 4.821661C21.437193 47.544399 21.235677 48.277719 21 49h24.054065L56 37.990164 42.100179 24 24.227987 41.980894z" fill="#92E4CF" fill-rule="nonzero"/><path d="M77.058918 4.884709c-1.747668-2.265473-4.37254-3.670812-7.2139-3.862271-2.841359-.19146-5.628568.849195-7.660047 2.860017L42 24.024921 55.995548 38 75.91854 18.120097c3.624418-3.49742 4.112393-9.160922 1.140378-13.235388z" fill="#35D78C" fill-rule="nonzero"/><path d="M77.065313 5.036591c-.286115-.366893-.597324-.713265-.93136-1.036591.370275 3.17398-.73595 6.342279-2.997943 8.586292L53.27865 32.367211 42.288051 43.310415l-6.95657 6.92887c-1.319913 1.315315-2.985165 2.224973-4.800619 2.622379-5.178737 1.249275-9.89903 3.950425-13.612925 7.789887l-.3812.37924c-1.101373 1.123588-2.70641 1.586479-4.23231 1.220594-.818867 2.03907.066467 4.368154 2.028884 5.337463 1.693377.793003 3.70052.416625 4.996107-.936865l.3812-.379241c3.713547-3.840489 8.433874-6.542632 13.612926-7.792696 1.81826-.39695 3.486118-1.307684 4.8076-2.625189l6.949588-6.92606 10.985012-10.943204 19.862946-19.779514c3.612479-3.480006 4.098846-9.115308 1.136622-13.169488z" fill="#163A40" fill-rule="nonzero" opacity=".16"/><path d="M39.219801 20.85821l19.881652 19.798094M45.159779 48.59962l30.775326-30.621107c3.60441-3.468126 4.09023-9.08482 1.135338-13.125931-1.73781-2.246737-4.347875-3.640453-7.173206-3.83033-2.825331-.189876-5.596818.842173-7.616837 2.836365L24.308562 41.64607c-1.314453 1.305305-2.226634 2.96372-2.627298 4.77663a23.72274 23.72274 0 01-.604585 2.176921M7.759093 68.347316c2.531663 3.025858 4.064217 6.768088 4.38533 10.708217.1165 2.874897-1.906568 5.390793-4.72802 5.87979-1.60677.247488-3.24097-.222463-4.47424-1.28667C1.708891 82.584449.999523 81.032104 1 79.398522c0-3.91986 2.91148-8.66569 4.52603-10.993808.253808-.361094.662427-.58049 1.1022-.591794.439772-.011303.859018.186813 1.130863.534397zM13.734718 60.342578l-.509714.508002c-.95437.958215-1.38955 2.320552-1.168475 3.657919.221076 1.337367 1.071198 2.485157 2.282605 3.081854 1.688917.7901 3.690774.4151 4.982948-.933436l.380197-.377853c3.702414-3.825009 8.408242-6.516699 13.5715-7.762774 1.81347-.395497 3.476936-1.302898 4.794938-2.61558L45 49H20.923644c-1.470305 4.298772-3.934003 8.185956-7.188926 11.342578h0z" stroke="#163A40" stroke-width="1.5" stroke-linecap="round" stroke-linejoin="round"/></g></svg>