<svg width="86" height="101" viewBox="0 0 86 101" xmlns="http://www.w3.org/2000/svg"><g transform="translate(1 1)" fill="none" fill-rule="evenodd"><path d="M56.065217 54.434783c-15.308152 0-27.71739 7.39076-27.71739 16.508152V81.94837c0 9.11739 12.409238 16.508152 27.71739 16.508152 15.308153 0 27.717392-7.390761 27.717392-16.508152V70.942935c0-9.117392-12.40924-16.508152-27.717392-16.508152z" fill="#35D78C" fill-rule="nonzero"/><path d="M40.475 57.296196L68.833152 85.58587a33.629353 33.629353 0 004.809783-1.881522L45.544022 55.673913A36.629347 36.629347 0 0040.475 57.296196z" fill="#163A40" fill-rule="nonzero" opacity=".16"/><path d="M56.065217 87.451087c-15.308152 0-27.71739-7.39076-27.71739-16.508152V81.94837c0 9.11739 12.409238 16.508152 27.71739 16.508152 15.308153 0 27.717392-7.390761 27.717392-16.508152V70.942935c0 9.117391-12.40924 16.508152-27.717392 16.508152z" fill="#163A40" fill-rule="nonzero" opacity=".16"/><path d="M6.369565 45.325544c-6.720148 6.713294-7.683147 17.269763-2.288637 25.088201s15.605395 10.66523 24.266898 6.765603v-6.236413c0-8.455435 10.680978-15.415761 24.443478-16.382609v-.009783l.877174-.877173L25.84837 25.84674 6.369565 45.325543z" fill="#92E4CF" fill-rule="nonzero"/><path d="M28.347826 77.179348v-6.236413c0-6.510326 6.342391-12.120652 15.536413-14.805979-14.183152.725544-25.319022 7.801631-25.319022 16.436414v6.236413c3.346347.294272 6.712586-.266768 9.78261-1.630435z" fill="#163A40" fill-rule="nonzero" opacity=".16"/><path d="M73.152174 6.369565c-7.695901-7.655597-20.13073-7.655597-27.82663 0L25.84837 25.84674 53.675 53.67337l19.477174-19.477173c7.655597-7.695901 7.655597-20.13073 0-27.82663z" fill="#35D78C" fill-rule="nonzero"/><path d="M9.630435 51.847283l19.478804-19.478805 19.477174-19.477174c7.6959-7.655597 20.13073-7.655597 27.82663 0a19.516308 19.516308 0 011.72663 2.010326c-.901924-3.22526-2.619636-6.163733-4.9875-8.532065-7.6959-7.655597-20.130729-7.655597-27.82663 0L25.84837 25.84674 6.369565 45.325544c-6.926171 6.973825-7.66243 17.982252-1.72663 25.816304-1.94938-6.860213-.042178-14.238386 4.9875-19.294565z" fill="#FFF" fill-rule="nonzero" opacity=".4"/><path d="M59.326087 3.855435c-12.022826.229891-15.269022 11.654348-11.639674 12.63587 3.213587 1.20326 7.928804-.679892 11.639674-.233153 3.71087-.446739 8.427717 1.436413 11.639674.233152 3.629348-.981521.383152-12.405978-11.639674-12.63587z" fill="#FFF" fill-rule="nonzero" opacity=".5"/><path d="M25.84837 25.84837l27.825 27.825m-.869022.877174l20.347826-20.354348c7.655597-7.695901 7.655597-20.13073 0-27.82663-7.695901-7.655598-20.13073-7.655598-27.82663 0L6.369565 45.325543c-7.655597 7.6959-7.655597 20.130729 0 27.82663 5.789905 5.755452 14.524317 7.355249 21.978261 4.025543M40.47174 57.292935l28.372826 28.302717M45.493478 55.62337l28.151087 28.082608" stroke="#163A40" stroke-width="1.5" stroke-linecap="round" stroke-linejoin="round"/><path d="M28.347826 70.942935V81.94837c0 9.11739 12.40924 16.508152 27.717391 16.508152 15.308153 0 27.717392-7.390761 27.717392-16.508152V70.942935" stroke="#163A40" stroke-width="1.5" stroke-linecap="round" stroke-linejoin="round"/><ellipse stroke="#163A40" stroke-width="1.5" stroke-linecap="round" stroke-linejoin="round" cx="56.065217" cy="70.942935" rx="27.717391" ry="16.508152"/></g></svg>